<svg xmlns="http://www.w3.org/2000/svg" version="1.1" xmlns:xlink="http://www.w3.org/1999/xlink" xmlns:svgjs="http://svgjs.dev/svgjs" width="1000" height="1125" viewBox="0 0 1000 1125"><g transform="matrix(1,0,0,1,0.00007343750002064553,0)"><svg viewBox="0 0 320 360" data-background-color="#ffffff" preserveAspectRatio="xMidYMid meet" height="1125" width="1000" xmlns="http://www.w3.org/2000/svg" xmlns:xlink="http://www.w3.org/1999/xlink"><g id="tight-bounds" transform="matrix(1,0,0,1,0.000023499999997511622,0)"><svg viewBox="0 0 320 360" height="360" width="320"><g><svg></svg></g><g><svg viewBox="0 0 320 360" height="360" width="320"><g><path transform="translate(-74.99272,-51.79039) scale(4.65793,4.65793)" d="M20.6 59.9l0.8 1-0.4-1.3c-0.1-0.6-0.8 0.1-0.4 0.3M21.5 59.3c0.3 0.5 0.6 1 0.6 1.5 0 0.7 0.6 1 1.1 1.2-0.7-0.8-1.1-3-1.7-2.7M59.9 16.9c1.7 0 3.3-0.2 5.1 0.2 4.4 1.1 8.1 3.3 10.6 6.4l7 11.2c0.3 2.8 0.9 5.9 0.8 9.3 0.7 0 0.6-1 1.4-1.2-0.8 2-1.2 4.5-1.4 7.4-0.5-1.6 0-4 0.1-5.3-0.7 1.1-1.1 0.3-1.1-0.2 0.1-0.8-0.3-0.7-0.6-1-1.1-1-1.8-2.1-2.6-3.8 0.5-1.3 0.6-3.2-1-4.2-0.5-0.3-1.1-0.8-1.4-1.6-0.4-1.1-1.1-2.4-0.9-4.1 0.1-0.5-1.5 1.1-2.4 0.4-3.9-2.7-7.8-5.8-12.5-8.4-2.5 0-4.3-0.9-5.2-2-0.8-1-0.2-2.3 1-2.4 0.7 0 1.5-0.2 2.1 0.2 0.1-0.4 0.5-0.9 1-0.9M50 14.6l0.2 0.1c1 0.2 1.5 1.6 2.6 1.1 0 0.7 0.1 1.4-0.1 1.9-0.3 0.8-1.2 0.8-1.9 0.8-6.7-0.4-10.6 2.4-14.7 4.8-1.1 0.7-2.3 1.2-3.2 2.1-4.3 4-9 7.7-10.1 15.1l-0.9 8.2c-0.1 0.9-1.1 1.8-0.9 2.9l0.7 4.9c-0.7-0.7-1.1 0.2-0.9 0.6 0.1 0.3 0.5 1.3 1.1 0.4 0.8 1.5 1.6 4.4 2.7 5.7 3.4 4 7.8 7.6 11.4 11.2 0.9-0.2 1.6-0.2 1.8-0.8 0.3 0.6-0.3 1.2-0.8 1.3 1.6 1 3.4 1.9 5.8 2.1 3.1 0.2 6 0.7 8.7 1.4 1.4-0.4 2.8-0.6 4.3-0.7 0.5 0 0.8-0.8 1.4-1l0.1-1c0.6 0.9 0.5-0.3 0.1-0.9 0.7 0.6 0.9 1.1 1.2 1.5 0-0.3 0.8-1.4 0.8-0.1l0.2-1.3c0.3-0.2 0.4 1.1 0.7 0.2 0.3-0.9 0.9-0.2 1.5-0.5-0.2 0.4-0.1 1.2 0.6 0.7l0.8-0.7c0.5 1.2 1.3 0.7 1.7 0.5 4.4-2.8 8.8-6.1 13-9.4l-0.1 1.3 0.5-1.6c0.5 0.5 0.9 0.1 1.1-0.2 0.6-1 1.4-2 2.7-2.9-1.6 4.3-3.5 7.7-5.9 10.5l-1 1.2c0 0.7-0.2 1.6-1 1.7-0.4 0.1-1.2-0.2-1.8 0.4-0.3 0.4 0.7 1.2-0.1 0.6-0.7-0.5-1.4 0-2.2 0.2-0.6 0.2 0.4 0.8 0.6 1.2 0.2 0.4 0.4 0.8 0.3 1.3l-1.1-1.2c-1.3 0.7-2.1 2-3.2 3-0.5 0.4-0.3 1.1-0.3 1.7-0.7 0-1.5-0.2-1.9 0.2-0.3 0.4-0.2 1-0.2 1.6-1-0.1-1.1-1.6-2-1.3-0.9 0.2-1.9 0.3-2.7 0.8 0.6 1.2-1 0.5-0.8 0.7-1.5-0.9-2.8-1.6-4.4-1-3.4-1.1-7.6-0.6-10.7-0.2 0-0.5 0.1-1-0.1-1.1-0.2 0.5-0.8 0.3-0.7 0.3-1.9-1.3-3.8-2.1-5.8-3.2-1.8 0.2-3.5-0.7-4-1.2-1.4-1.3-3-0.6-4.3-0.9-2.8-0.7-3.8-3.6-4.1-5.6-0.2-1-1-1.4-1.3-1.3-1.3-4.2-3.3-8-4.9-11.9-0.4-1-0.3-2-0.3-3.1 0.5 0.2 1 0.1 0.9-0.6-0.5-3.3-1.7-5.8-3-8.2 0.7-3.4 0.8-7.4 2.4-10.4 1.4-2.7 4-4.1 5.8-6.4 0.6-0.8 0.6-1.9 1.2-2.6 2-2 4-4.1 6.2-5.9 1-0.8 2.2 0 3.7-0.3 0.5-1.8 2.5-3.4 4.4-2.9 0.8 0.2 2.4-1.9 2.9-2.1 0.8-0.3 0.4 0.8 0.4 1.5 1.9-1.5 4.5-2.3 6.9-3.2" fill="#2ecc40" fill-rule="nonzero" stroke="none" stroke-width="1" stroke-linecap="butt" stroke-linejoin="miter" stroke-miterlimit="10" stroke-dasharray="" stroke-dashoffset="0" font-family="none" font-weight="none" font-size="none" text-anchor="none" style="mix-blend-mode: normal" data-fill-palette-color="tertiary"></path></g><g transform="matrix(1,0,0,1,64,139.33607855539287)"><svg viewBox="0 0 192 81.32784288921425" height="81.32784288921425" width="192"><g><svg viewBox="0 0 192 81.32784288921425" height="81.32784288921425" width="192"><g><svg viewBox="0 0 192 81.32784288921425" height="81.32784288921425" width="192"><g transform="matrix(1,0,0,1,0,49.1560517715959)"><svg viewBox="0 0 192 32.17179111761835" height="32.17179111761835" width="192"><g id="textblocktransform"><svg viewBox="0 0 192 32.17179111761835" height="32.17179111761835" width="192" id="textblock"><g><svg viewBox="0 0 192 32.17179111761835" height="32.17179111761835" width="192"><g transform="matrix(1,0,0,1,0,0)"><svg width="192" viewBox="2 -36.08 300.11 50.29" height="32.17179111761835" data-palette-color="#4acd8d"><path d="M2-0.29L2-0.29 2.15-35.55Q12.99-35.45 18.9-30 24.8-24.56 24.8-14.06L24.8-14.06Q24.8-10.69 23.05-7.91 21.29-5.13 18.53-3.47 15.77-1.81 12.57-0.9 9.38 0 6.25 0L6.25 0Q4.3 0 2-0.29ZM5.66-3.27L5.66-3.27 6.49-3.27Q9.28-3.27 11.87-3.93 14.45-4.59 16.65-5.91 18.85-7.23 20.17-9.55 21.48-11.87 21.48-14.89L21.48-14.89Q21.48-18.99 19.02-23.22 16.55-27.44 13.06-30.05 9.57-32.67 6.59-32.67L6.59-32.67Q5.96-32.67 5.37-32.52L5.37-32.52Q5.37-29.59 5.66-3.27ZM48.44-4.74L48.44-4.74 48.92-2.59Q46.77-1.81 42.55-0.85 38.33 0.1 36.28 0.1L36.28 0.1Q34.18 0.1 32.61-1.29 31.05-2.69 30.27-4.86 29.49-7.03 29.12-9.16 28.76-11.28 28.76-13.33L28.76-13.33Q28.76-25.54 39.79-25.54L39.79-25.54Q42.43-25.54 44.43-23.85 46.43-22.17 46.43-19.48L46.43-19.48Q46.43-18.02 45.63-16.89 44.82-15.77 43.67-15.11 42.53-14.45 40.74-13.92 38.96-13.38 37.6-13.13 36.23-12.89 34.32-12.6 32.42-12.3 31.69-12.16L31.69-12.16Q31.74-10.74 31.86-9.67 31.98-8.59 32.35-7.35 32.71-6.1 33.32-5.3 33.93-4.49 35.01-3.96 36.08-3.42 37.55-3.42L37.55-3.42Q39.3-3.42 41.84-3.74 44.38-4.05 46.36-4.39 48.34-4.74 48.44-4.74ZM31.88-15.19L31.88-15.19Q38.52-17.09 42.77-19.19L42.77-19.19Q42.43-20.8 41.84-21.53 41.26-22.27 40.09-22.27L40.09-22.27Q37.11-22.27 34.69-20.21 32.27-18.16 31.88-15.19ZM64.16-25.1L64.16-25.1 67.43-24.66Q66.5-20.8 64.5-12.92 62.5-5.03 61.37-0.1L61.37-0.1Q59.47 0.24 58.05 0.24L58.05 0.24Q56.88 0.24 55.85 0.05L55.85 0.05Q55.12-2.49 53.54-7.98 51.95-13.48 50.85-17.53 49.75-21.58 48.87-25.29L48.87-25.29 52.09-25.05 58.44-4.74Q59.22-7.08 60.1-10.01 60.98-12.94 61.52-15.01 62.06-17.09 62.93-20.43 63.81-23.78 64.16-25.1ZM89.06-4.74L89.06-4.74 89.54-2.59Q87.39-1.81 83.17-0.85 78.95 0.1 76.9 0.1L76.9 0.1Q74.8 0.1 73.23-1.29 71.67-2.69 70.89-4.86 70.11-7.03 69.74-9.16 69.38-11.28 69.38-13.33L69.38-13.33Q69.38-25.54 80.41-25.54L80.41-25.54Q83.05-25.54 85.05-23.85 87.05-22.17 87.05-19.48L87.05-19.48Q87.05-18.02 86.25-16.89 85.44-15.77 84.29-15.11 83.15-14.45 81.36-13.92 79.58-13.38 78.22-13.13 76.85-12.89 74.94-12.6 73.04-12.3 72.31-12.16L72.31-12.16Q72.36-10.74 72.48-9.67 72.6-8.59 72.97-7.35 73.33-6.1 73.94-5.3 74.55-4.49 75.63-3.96 76.7-3.42 78.17-3.42L78.17-3.42Q79.92-3.42 82.46-3.74 85-4.05 86.98-4.39 88.96-4.74 89.06-4.74ZM72.5-15.19L72.5-15.19Q79.14-17.09 83.39-19.19L83.39-19.19Q83.05-20.8 82.46-21.53 81.88-22.27 80.71-22.27L80.71-22.27Q77.73-22.27 75.31-20.21 72.89-18.16 72.5-15.19ZM91.49-2.34L92.57-33.5 94.81-33.01 95.89-1.42Q95.45 0.1 94.18 0.1L94.18 0.1Q93.3 0.1 92.49-0.61 91.69-1.32 91.49-2.34L91.49-2.34ZM99.89-10.4L99.89-10.4Q99.89-12.35 100.3-14.75 100.72-17.14 101.55-19.78 102.38-22.41 104.04-24.17 105.7-25.93 107.9-25.93L107.9-25.93Q112.59-25.93 115.42-21.7 118.25-17.48 118.25-12.3L118.25-12.3Q118.25-10.11 117.79-7.93 117.32-5.76 116.34-3.66 115.37-1.56 113.54-0.17 111.71 1.22 109.26 1.42L109.26 1.42Q104.77 0.83 102.33-2.42 99.89-5.66 99.89-10.4ZM108.19-23.39L108.19-23.39Q106.48-23.19 105.31-20.26 104.14-17.33 103.8-14.58 103.45-11.82 103.45-9.72L103.45-9.72Q103.45-6.98 105.14-4.66 106.82-2.34 108.92-2.34L108.92-2.34Q110.44-2.34 111.66-3.52 112.88-4.69 113.59-6.42 114.29-8.15 114.66-9.91 115.03-11.67 115.03-13.04L115.03-13.04Q115.03-17.04 113.22-20.02 111.41-23 108.19-23.39ZM122.2 11.77L122.79-25.68 125.52-25.2Q125.52-24.17 125.57-23.68L125.57-23.68Q128.26-25.39 130.99-25.39L130.99-25.39Q135.43-25.39 137.92-21.58 140.41-17.77 140.41-12.94L140.41-12.94Q140.41-10.5 140.05-8.28 139.68-6.05 138.75-3.74 137.83-1.42 135.9-0.02 133.97 1.37 131.24 1.37L131.24 1.37Q128.65 1.37 126.25 0L126.25 0Q126.45 8.54 126.6 12.7L126.6 12.7Q126.16 14.21 124.89 14.21L124.89 14.21Q124.01 14.21 123.2 13.5 122.4 12.79 122.2 11.77L122.2 11.77ZM125.96-20.51L125.96-20.51 126.11-4.74Q126.69-3.56 127.91-2.86 129.14-2.15 130.6-2.15L130.6-2.15Q132.5-2.15 133.85-3.37 135.19-4.59 135.75-6.62 136.31-8.64 136.53-10.4 136.75-12.16 136.75-14.11L136.75-14.11Q136.75-22.41 131.14-22.41L131.14-22.41Q129.33-22.41 127.79-21.9 126.25-21.39 125.96-20.51ZM164.05-4.74L164.05-4.74 164.53-2.59Q162.38-1.81 158.16-0.85 153.94 0.1 151.89 0.1L151.89 0.1Q149.79 0.1 148.22-1.29 146.66-2.69 145.88-4.86 145.1-7.03 144.73-9.16 144.37-11.28 144.37-13.33L144.37-13.33Q144.37-25.54 155.4-25.54L155.4-25.54Q158.04-25.54 160.04-23.85 162.04-22.17 162.04-19.48L162.04-19.48Q162.04-18.02 161.24-16.89 160.43-15.77 159.28-15.11 158.14-14.45 156.35-13.92 154.57-13.38 153.21-13.13 151.84-12.89 149.93-12.6 148.03-12.3 147.3-12.16L147.3-12.16Q147.35-10.74 147.47-9.67 147.59-8.59 147.96-7.35 148.32-6.1 148.93-5.3 149.54-4.49 150.62-3.96 151.69-3.42 153.16-3.42L153.16-3.42Q154.91-3.42 157.45-3.74 159.99-4.05 161.97-4.39 163.95-4.74 164.05-4.74ZM147.49-15.19L147.49-15.19Q154.13-17.09 158.38-19.19L158.38-19.19Q158.04-20.8 157.45-21.53 156.87-22.27 155.7-22.27L155.7-22.27Q152.72-22.27 150.3-20.21 147.88-18.16 147.49-15.19ZM182.6-18.6L182.6-18.6 180.45-18.75Q179.42-21.48 176.98-21.48L176.98-21.48Q175.91-21.48 174.71-21 173.52-20.51 172.73-20 171.95-19.48 170.68-18.51L170.68-18.51Q170.68-17.82 170.66-14.06 170.63-10.3 170.71-5.71 170.78-1.12 170.88-0.78L170.88-0.78Q170.44 0.68 169.17 0.68L169.17 0.68Q168.29 0.68 167.48-0.02 166.68-0.73 166.48-1.76L166.48-1.76Q167.41-17.43 168.14-25.44L168.14-25.44 170.34-24.95 170.49-21.68Q173.91-24.51 176.35-24.51L176.35-24.51Q179.03-24.51 180.86-23.29 182.69-22.07 182.69-19.73L182.69-19.73Q182.69-18.99 182.6-18.6ZM199.68-23.54L199.68-23.54 199.2-21.58Q194.46-23.54 191.82-23.54L191.82-23.54Q189.48-23.54 188.53-22.83 187.58-22.12 187.58-19.82L187.58-19.82Q187.58-17.97 188.92-16.75 190.26-15.53 192.17-14.82 194.07-14.11 196-13.31 197.93-12.5 199.27-10.94 200.61-9.38 200.61-7.08L200.61-7.08Q200.61-3.96 198.32-1.61 196.02 0.73 192.36 0.78L192.36 0.78Q189.67 0.78 187.33-0.34 184.99-1.46 183.62-3.17L183.62-3.17 185.04-4.64Q185.62-4.39 186.77-3.86 187.92-3.32 188.41-3.15 188.89-2.98 189.85-2.78 190.8-2.59 191.87-2.59L191.87-2.59Q194.17-2.59 195.63-3.61 197.1-4.64 197.1-6.49L197.1-6.49Q197.1-7.71 196.41-8.57 195.73-9.42 194.61-9.96 193.48-10.5 192.14-10.99 190.8-11.47 189.46-12.08 188.11-12.7 186.99-13.55 185.87-14.4 185.18-15.87 184.5-17.33 184.5-19.34L184.5-19.34Q184.5-22.27 186.09-24.24 187.67-26.22 190.55-26.22L190.55-26.22Q191.68-26.22 193.09-25.88 194.51-25.54 195.34-25.24 196.17-24.95 197.8-24.29 199.44-23.63 199.68-23.54ZM204.08-33.2L202.95-25.73 200.76-26.27 199.63-34.13Q199.73-35.11 200.22-35.6 200.71-36.08 201.34-36.08L201.34-36.08Q202.32-36.08 203.17-35.25 204.03-34.42 204.08-33.2L204.08-33.2ZM221.8-35.06L221.8-35.06 223.99-35.64Q223.99-34.08 224.04-33.89L224.04-33.89Q226.83-35.74 231.85-35.74L231.85-35.74Q237.27-35.74 239.96-32.35 242.65-28.96 242.65-22.85L242.65-22.85Q242.65-17.43 240.01-13.87 237.37-10.3 232.05-10.3L232.05-10.3Q231.17-10.3 225.02-10.89L225.02-10.89Q225.12-7.32 225.41 0.2L225.41 0.2Q224.97 1.71 223.7 1.71L223.7 1.71Q222.82 1.71 222.02 1 221.21 0.29 221.01-0.73L221.01-0.73Q221.16-4.83 221.33-16.7 221.5-28.56 221.8-35.06ZM224.48-30.62L224.48-30.62 224.87-15.38Q227.56-13.92 231.07-13.92L231.07-13.92Q234.44-13.92 236.79-16.46 239.13-18.99 239.13-22.66L239.13-22.66Q239.13-26.61 236.69-29.79 234.25-32.96 230.59-32.96L230.59-32.96Q227.61-32.96 224.48-30.62ZM246.45-21.09L246.45-21.09 245.48-23.58Q246.74-24.85 248.7-25.61 250.65-26.37 252.56-26.37L252.56-26.37Q260.81-26.37 260.81-12.11L260.81-12.11Q260.81-10.16 260.59-6.35 260.37-2.54 260.37-0.63L260.37-0.63Q259.98 0.88 258.85 0.88L258.85 0.88Q257.98 0.88 257.24 0 256.51-0.88 256.51-1.95L256.51-1.95Q256.51-2.29 256.56-2.44L256.56-2.44Q253.53 0.49 250.11 0.49L250.11 0.49Q247.53 0.49 245.6-1.39 243.67-3.27 243.67-5.96L243.67-5.96Q243.67-10.5 247.21-14.16 250.75-17.82 255.24-17.82L255.24-17.82Q255.44-17.82 255.63-17.8 255.83-17.77 256.1-17.72 256.36-17.68 256.51-17.68L256.51-17.68Q256.12-23.39 251.97-23.39L251.97-23.39Q249.53-23.39 246.45-21.09ZM256.66-5.81L256.66-5.81Q256.75-9.23 256.75-10.99L256.75-10.99Q256.75-12.45 256.66-15.09L256.66-15.09 256.27-15.09Q252.8-15.04 249.94-12.5 247.09-9.96 247.09-6.35L247.09-6.35Q247.09-4.79 248.04-3.86 248.99-2.93 250.36-2.93L250.36-2.93Q252.51-2.93 256.66-5.81ZM281.22-24.22L281.22-24.22 280.97-22.12Q278.92-22.41 277.46-22.41L277.46-22.41Q274.09-22.41 271.89-20.39 269.69-18.36 268.89-15.6 268.08-12.84 268.08-9.47L268.08-9.47Q268.08-7.91 268.28-6.69 268.47-5.47 268.98-4.3 269.5-3.13 270.59-2.47 271.69-1.81 273.3-1.81L273.3-1.81Q275.45-1.81 278.77-2.64L278.77-2.64Q279.8-3.03 280.38-3.03L280.38-3.03Q281.56-3.03 281.8-0.29L281.8-0.29Q277.5 1.07 273.84 1.07L273.84 1.07Q268.52 1.07 266.64-1.54 264.76-4.15 264.76-10.01L264.76-10.01Q264.76-13.43 265.22-15.99 265.69-18.55 266.86-20.78 268.03-23 270.25-24.17 272.47-25.34 275.7-25.34L275.7-25.34Q279.31-25.34 281.22-24.22ZM302.11 0L302.11 0 297.62-0.1Q295.81-1.9 292.66-5.93 289.51-9.96 288.68-10.89L288.68-10.89 288.68-0.83Q288.24 0.63 286.97 0.63L286.97 0.63Q286.1 0.63 285.29-0.07 284.48-0.78 284.29-1.81L284.29-1.81Q284.44-6.84 284.44-18.51 284.44-30.18 284.63-35.25L284.63-35.25 287.61-34.62Q287.66-32.67 287.78-26.61 287.9-20.56 288-17.58L288-17.58 299.86-26.27 300.69-24.07Q296.06-20.7 289.81-14.55L289.81-14.55Q291.12-13.13 295.64-7.64 300.16-2.15 302.11 0Z" opacity="1" transform="matrix(1,0,0,1,0,0)" fill="#4acd8d" class="wordmark-text-0" data-fill-palette-color="primary" id="text-0"></path></svg></g></svg></g></svg></g></svg></g><g transform="matrix(1,0,0,1,73.76919974114008,0)"><svg viewBox="0 0 44.46160051771983 44.46141532454856" height="44.46141532454856" width="44.46160051771983"><g><svg xmlns="http://www.w3.org/2000/svg" xmlns:xlink="http://www.w3.org/1999/xlink" version="1.0" x="0" y="0" viewBox="4.667731951646829 4.685959745359883 90.30503348557724 90.30465734357294" enable-background="new 0 0 100 100" xml:space="preserve" height="44.46141532454856" width="44.46160051771983" class="icon-icon-0" data-fill-palette-color="accent" id="icon-0"><path d="M17.504 35.743c-1.334 8.611 0.522 17.134 5.093 23.382 3.514 4.801 8.413 7.905 13.796 8.739 5.677 0.88 11.253-0.429 15.703-3.685 1.248-0.912 2.36-1.946 3.326-3.076-2.222 0.978-4.814 1.267-7.626 0.831-11.717-1.816-19.673-13.464-17.735-25.964 0.934-6.03 4.384-11.497 9.713-15.397 6.768-4.952 15.953-6.97 25.201-5.537 7.474 1.158 17.67 5.964 25.56 15.213 0 0-22.835-39.421-56.115-20.356C23.689 16.04 18.653 28.323 17.504 35.743z" fill="#4acd8d" data-fill-palette-color="accent"></path><path d="M82.544 65.256c1.659-8.555 0.125-17.141-4.207-23.557-3.331-4.931-8.109-8.217-13.457-9.253-5.639-1.094-11.261 0.004-15.83 3.091-1.282 0.863-2.431 1.854-3.44 2.947 2.257-0.894 4.859-1.084 7.652-0.543 11.64 2.257 19.151 14.196 16.744 26.616-1.161 5.989-4.815 11.324-10.288 15.019-6.949 4.692-16.205 6.364-25.393 4.582C26.902 82.719 16.894 77.532 9.358 67.992c0 0 21.331 40.255 55.307 22.457C75.621 84.712 81.115 72.628 82.544 65.256z" fill="#4acd8d" data-fill-palette-color="accent"></path><path d="M35.726 82.88c8.611 1.334 17.133-0.522 23.381-5.094 4.801-3.514 7.905-8.413 8.74-13.796 0.879-5.676-0.429-11.253-3.686-15.702-0.912-1.248-1.946-2.36-3.076-3.327 0.979 2.222 1.267 4.815 0.831 7.626-1.816 11.717-13.463 19.673-25.965 17.736-6.029-0.934-11.497-4.385-15.395-9.713-4.952-6.768-6.971-15.954-5.538-25.202 1.158-7.474 5.964-17.67 15.213-25.559 0 0-39.421 22.835-20.356 56.115C16.022 76.695 28.305 81.73 35.726 82.88z" fill="#4acd8d" data-fill-palette-color="accent"></path><path d="M90.432 35.718c-5.738-10.955-17.822-16.45-25.194-17.879-8.554-1.659-17.141-0.125-23.557 4.208-4.931 3.331-8.217 8.108-9.254 13.456-1.094 5.64 0.004 11.261 3.092 15.83 0.863 1.282 1.854 2.431 2.946 3.441-0.894-2.257-1.084-4.859-0.542-7.652 2.257-11.64 14.196-19.151 26.615-16.744 5.99 1.161 11.324 4.816 15.019 10.289 4.693 6.949 6.363 16.204 4.583 25.392-1.44 7.423-6.626 17.431-16.167 24.966C67.973 91.025 108.228 69.694 90.432 35.718z" fill="#4acd8d" data-fill-palette-color="accent"></path></svg></g></svg></g><g></g></svg></g></svg></g></svg></g></svg></g><defs></defs></svg><rect width="320" height="360" fill="none" stroke="none" visibility="hidden"></rect></g></svg></g></svg>